<svg width="24" height="24" viewBox="0 0 24 24" fill="none" xmlns="http://www.w3.org/2000/svg"><g clip-path="url(#clip0_68_610)"><path d="M22.3155 16.687C21.8656 15.9763 21.3404 15.2378 20.7512 14.483H22.2274C22.4733 14.483 22.6731 14.2776 22.6731 14.0246V11.2299C22.6731 10.9768 22.4733 10.7714 22.2274 10.7714H11.0736C10.0671 10.7714 9.18509 11.3152 8.68899 12.1325C6.91637 10.3926 5.42023 8.6406 4.3804 7.07268C3.08399 5.11811 2.6419 3.65964 3.16644 3.07043C3.34839 2.86573 3.64833 2.76481 4.0499 2.76481C4.80401 2.76481 5.91776 3.12089 7.28241 3.81317C8.01235 4.18347 8.78707 4.63622 9.5888 5.1572H5.34418C5.34418 7.23829 6.98602 8.92561 9.01167 8.92561H22.1236C22.4278 8.92561 22.6738 8.67258 22.6738 8.35985V5.72225C22.6738 5.41023 22.4271 5.15649 22.1236 5.15649H10.9087C9.21068 3.93613 7.55534 2.92544 6.04285 2.19762C3.24888 0.855012 1.24811 0.632546 0.410135 1.57429C-1.29425 3.48906 2.46137 9.52051 8.95978 15.3068C12.0317 18.0417 15.2265 20.2714 17.9558 21.5848C19.6111 22.3816 20.9879 22.7846 22.0099 22.7846C22.7121 22.7846 23.2473 22.5941 23.5885 22.2103C24.4265 21.2686 23.9744 19.3076 22.3155 16.6877V16.687ZM21.7825 19.6452C21.6034 19.8463 21.3056 19.9458 20.9047 19.9458C19.3894 19.9458 16.4113 18.5236 12.8888 15.8007V15.4517C12.8888 14.9166 13.311 14.483 13.8313 14.483H19.7412C20.0411 14.8782 20.3176 15.2662 20.5678 15.6429C21.8642 17.5975 22.3063 19.056 21.7818 19.6452H21.7825Z" fill="white"></path><path d="M8.26465 15.7247V19.6736C8.26465 19.9266 8.46437 20.1321 8.71029 20.1321H12.4425C12.6884 20.1321 12.8881 19.9266 12.8881 19.6736V19.4355C11.414 18.3921 9.91431 17.1959 8.44305 15.886C8.38263 15.8327 8.32435 15.778 8.26465 15.7247Z" fill="white"></path></g><defs><clipPath id="clip0_68_610"><rect width="24" height="21.7839" fill="white" transform="translate(0 1)"></rect></clipPath></defs></svg>