<svg width="24" height="24" viewBox="0 0 24 24" fill="none" xmlns="http://www.w3.org/2000/svg">
<g clip-path="url(#clip0_312_222)">
<path d="M1.24219 18.2795H4.86813V19.7301H7.28571" stroke="white" stroke-linecap="round" stroke-linejoin="round"/>
<path d="M1.23434 11.0271H4.38458V9.09303H6.31864" stroke="white" stroke-linecap="round" stroke-linejoin="round"/>
<path d="M5.83513 15.3799H10.6703M1.23434 15.3799H5.83513H1.23434ZM5.83513 15.3799V12.4788H7.76919L5.83513 15.3799Z" stroke="white" stroke-linecap="round" stroke-linejoin="round"/>
<path d="M10.1869 12.9624C9.91984 12.9624 9.70336 12.7459 9.70336 12.4789C9.70336 12.2118 9.91984 11.9954 10.1869 11.9954" stroke="white"/>
<path d="M10.1868 12.9624C10.4539 12.9624 10.6703 12.7459 10.6703 12.4789C10.6703 12.2118 10.4539 11.9954 10.1868 11.9954" stroke="white"/>
<path d="M13.0864 9.57642C12.8193 9.57642 12.6028 9.35994 12.6028 9.0929C12.6028 8.82586 12.8193 8.60939 13.0864 8.60939" stroke="white"/>
<path d="M13.0864 9.57642C13.3534 9.57642 13.5699 9.35994 13.5699 9.0929C13.5699 8.82586 13.3534 8.60939 13.0864 8.60939" stroke="white"/>
<path d="M9.70324 20.2124C9.4362 20.2124 9.21973 19.9959 9.21973 19.7289C9.21973 19.4618 9.4362 19.2454 9.70324 19.2454" stroke="white"/>
<path d="M9.70324 20.2124C9.97028 20.2124 10.1867 19.9959 10.1867 19.7289C10.1867 19.4618 9.97028 19.2454 9.70324 19.2454" stroke="white"/>
<path d="M18.4067 11.9941V9.09303H15.5056" stroke="white" stroke-linecap="round" stroke-linejoin="round"/>
<path d="M18.8901 17.7963V19.7303H15.022" stroke="white" stroke-linecap="round" stroke-linejoin="round"/>
<path d="M21.5495 17.7962V19.7302C21.5495 20.4997 21.2438 21.2376 20.6997 21.7816C20.1557 22.3257 19.4178 22.6313 18.6484 22.6313H4.14282C3.3734 22.6313 2.63549 22.3257 2.09143 21.7816C1.54737 21.2376 1.24172 20.4997 1.24172 19.7302L1.24172 9.57638C1.24172 8.80696 1.54737 8.06906 2.09143 7.525C2.63549 6.98093 3.3734 6.67528 4.14282 6.67528L18.6484 6.67528C19.4178 6.67528 20.1557 6.98093 20.6997 7.525C21.2438 8.06906 21.5495 8.80696 21.5495 9.57638V11.994" stroke="white" stroke-linecap="round" stroke-linejoin="round"/>
<path d="M18.6485 6.67531L16.3963 2.17087C16.3111 2.00041 16.1932 1.84841 16.0492 1.72354C15.9053 1.59867 15.7382 1.50338 15.5574 1.44312C15.3766 1.38286 15.1857 1.35881 14.9957 1.37235C14.8056 1.38588 14.62 1.43673 14.4496 1.52199L4.14294 6.67531" stroke="white" stroke-linecap="round" stroke-linejoin="round"/>
<path d="M21.7106 17.7962C22.0526 17.7962 22.3805 17.674 22.6223 17.4563C22.8642 17.2387 23 16.9435 23 16.6358V13.1545C23 12.8467 22.8642 12.5515 22.6223 12.3339C22.3805 12.1163 22.0526 11.994 21.7106 11.994H18.4872C17.6323 11.994 16.8124 12.2997 16.2079 12.8437C15.6033 13.3878 15.2637 14.1257 15.2637 14.8951C15.2637 15.6645 15.6033 16.4024 16.2079 16.9465C16.8124 17.4906 17.6323 17.7962 18.4872 17.7962H21.7106Z" stroke="white" stroke-linecap="round" stroke-linejoin="round"/>
<path d="M18.4069 15.2577C18.2067 15.2577 18.0443 15.0954 18.0443 14.8951C18.0443 14.6948 18.2067 14.5325 18.4069 14.5325" stroke="white"/>
<path d="M18.407 15.2577C18.6072 15.2577 18.7696 15.0954 18.7696 14.8951C18.7696 14.6948 18.6072 14.5325 18.407 14.5325" stroke="white"/>
</g>
<defs>
<clipPath id="clip0_312_222">
<rect width="24" height="24" rx="6" fill="white"/>
</clipPath>
</defs>
</svg>
