<svg width="32" height="33" viewBox="0 0 32 33" fill="none" xmlns="http://www.w3.org/2000/svg">
<path fill-rule="evenodd" clip-rule="evenodd" d="M32 16.5469C32 25.3834 24.8365 32.5469 16 32.5469C7.16344 32.5469 0 25.3834 0 16.5469C0 7.71032 7.16344 0.546875 16 0.546875C24.8365 0.546875 32 7.71032 32 16.5469ZM25.3333 16.5469C25.3333 21.7015 21.1547 25.8802 16 25.8802C10.8453 25.8802 6.66667 21.7015 6.66667 16.5469C6.66667 11.3922 10.8453 7.21354 16 7.21354C21.1547 7.21354 25.3333 11.3922 25.3333 16.5469ZM14.3333 13.5469C13.5969 13.5469 13 14.1438 13 14.8802V18.2135C13 18.9499 13.5969 19.5469 14.3333 19.5469H17.6667C18.4031 19.5469 19 18.9499 19 18.2135V14.8802C19 14.1438 18.4031 13.5469 17.6667 13.5469H14.3333Z" fill="#2D65F8"/>
</svg>
