<svg width="32" height="32" viewBox="0 0 32 32" fill="none" xmlns="http://www.w3.org/2000/svg">
<path d="M29.6129 26.156L27.7497 26.6114L27.3641 26.904L10.9268 24.6937H1.20312L4.67513 16.1L10.3197 16.1337L11.6866 18.6143L16.1958 23.2952L15.6116 20.3805L19.6361 21.096L27.3641 26.904L21.2561 21.096L20.2532 18.3216L16.7252 9.72907C16.7252 9.72907 14.0144 4.92933 13.9584 4.87554C14.0348 4.88555 20.2532 4.85303 20.2532 4.85303L21.3885 9.46888L23.8921 18.3216L24.5754 20.7171L27 23.5228L25.0273 20.5107L26.3165 19.9691L26.9338 22.6998L26.9898 23.5228L29.6129 26.156Z" fill="#F58C25"/>
<path d="M10.3196 16.1321L4.67509 16.0997L3.32981 14.6799L4.17873 14.1169L2.65781 13.3038L3.95854 12.9573L2.17291 11.8528L3.242 11.3975L3.50673 9.75L6.47219 4.31105L10.4851 0.852295L13.9469 4.87271L16.7252 9.71623L10.3196 16.131V16.1321Z" fill="#81491F"/>
<path d="M1.20312 24.6936H10.9369L13.5944 28.1823C13.5944 28.1823 6.98003 30.1438 3.66076 31.1407C2.81185 28.9192 2.00621 26.8063 1.20312 24.6936Z" fill="#E48027"/>
<path d="M27.3754 9.96681L28.1581 10.855L27.5854 11.5279L28.3783 12.0909L27.8055 12.8389L27.9379 14.0198L26.9566 15.168L21.3885 9.46895L30.2633 2.24121L27.3754 9.96681Z" fill="#81491F"/>
<path d="M27.3654 26.9038L27.3984 29.0603L24.2345 30.6315L13.5842 28.1922C13.5066 28.2472 13.5842 28.1922 13.5842 28.1922C18.049 27.7707 27.3654 26.9038 27.3654 26.9038Z" fill="#D9C6B7"/>
<path d="M30.2631 2.24121L21.3884 9.46896L20.2532 4.85311L30.2631 2.24121Z" fill="#E48027"/>
<path d="M21.3885 9.46851L26.9451 15.1677L26.7136 18.1261L23.8919 18.3211L21.3885 9.46851Z" fill="#E57F24"/>
<path d="M13.5842 28.1807L24.233 30.6199L27.3971 29.0476L29.5696 28.8637L27.9151 30.9878L23.4287 31.3881L13.5842 28.1807Z" fill="#C7B7AB"/>
<path d="M13.5828 28.1824L10.9368 24.6924L16.1956 23.2952L13.5828 28.1824Z" fill="#D76F21"/>
<path d="M29.5697 28.8642C28.8417 28.9292 28.1252 28.9943 27.3972 29.0494L27.364 26.8927L27.7498 26.6001L29.613 26.156C29.613 26.156 30.2417 26.5887 30.7813 26.8927C30.3524 27.5858 29.9541 28.225 29.5697 28.8642Z" fill="#2A2626"/>
<path d="M23.8906 18.3217L26.7136 18.1265L26.3279 19.9691L25.2588 18.7119L25.0272 20.5108L26.9999 23.523L24.5754 20.7058L23.8919 18.3217H23.8906Z" fill="#D66F21"/>
<path d="M10.3196 16.1319L16.7252 9.71729L20.2532 18.321L11.6878 18.6138L10.3196 16.1319Z" fill="#E47E25"/>
<path d="M13.5842 28.1824L16.1971 23.2952L27.3652 26.904L13.5842 28.1824Z" fill="#E47F26"/>
<path d="M11.6879 18.6139L20.2532 18.3213L19.6361 21.0958L18.1927 18.9067L15.613 20.3803L11.6879 18.6139Z" fill="#D66F21"/>
<path d="M19.636 21.0958L20.2532 18.3213L21.2561 21.0958L27.3652 26.9038C27.3652 26.9038 21.3999 22.4281 19.636 21.0958Z" fill="#E47F25"/>
<path d="M19.6362 21.0956L15.6119 20.3801L18.1917 18.9065L19.6362 21.0956Z" fill="#32404E"/>
<path d="M15.613 20.3801L16.1971 23.2947L11.6879 18.615L15.613 20.3814V20.3801Z" fill="#E57F25"/>
<path d="M25.0273 20.5105L25.2589 18.7117L26.328 19.9677L25.0273 20.5105Z" fill="#38424D"/>
<path d="M26.3281 19.9691L26.7137 18.1265L27.121 20.0879L26.9454 22.6998L26.3281 19.9691Z" fill="#E57F24"/>
</svg>
